<svg width="28" height="28" viewBox="0 0 28 28" fill="none" xmlns="http://www.w3.org/2000/svg">
<path d="M18.6668 7.34992V6.99992C18.6668 4.42159 16.5785 2.33325 14.0002 2.33325C11.4218 2.33325 9.3335 4.42159 9.3335 6.99992V12.8333" stroke="#1079C0" stroke-width="1.5" stroke-linecap="round" stroke-linejoin="round"/>
<path d="M10.5469 16.5549C11.3985 17.4999 12.6352 18.0833 14.0002 18.0833C16.5785 18.0833 18.6669 15.9949 18.6669 13.4166V12.8333" stroke="#1079C0" stroke-width="1.5" stroke-linecap="round" stroke-linejoin="round"/>
<path d="M7.91016 19.775C9.50849 21.2566 11.6435 22.1666 14.0002 22.1666C18.9235 22.1666 22.9252 18.165 22.9252 13.2416V11.2583" stroke="#1079C0" stroke-width="1.5" stroke-linecap="round" stroke-linejoin="round"/>
<path d="M5.0752 11.2583V13.2416C5.0752 14.4783 5.3202 15.645 5.7752 16.7183" stroke="#1079C0" stroke-width="1.5" stroke-linecap="round" stroke-linejoin="round"/>
<path d="M23.415 3.31323L4.58496 22.1549" stroke="#1079C0" stroke-width="1.5" stroke-linecap="round" stroke-linejoin="round"/>
<path d="M12.8335 3.5V7" stroke="#1079C0" stroke-width="1.5" stroke-linecap="round" stroke-linejoin="round"/>
<path d="M14 22.1667V25.6667" stroke="#1079C0" stroke-width="1.5" stroke-linecap="round" stroke-linejoin="round"/>
</svg>
