<svg width="50" height="50" viewBox="0 0 50 50" fill="none" xmlns="http://www.w3.org/2000/svg">
<path d="M24.9998 32.2917C29.604 32.2917 33.3332 28.5626 33.3332 23.9584V12.5001C33.3332 7.89591 29.604 4.16675 24.9998 4.16675C20.3957 4.16675 16.6665 7.89591 16.6665 12.5001V23.9584C16.6665 28.5626 20.3957 32.2917 24.9998 32.2917Z" stroke="white" stroke-width="1.5" stroke-linecap="round" stroke-linejoin="round"/>
<path d="M9.0625 20.1042V23.6459C9.0625 32.4376 16.2083 39.5834 25 39.5834C33.7917 39.5834 40.9375 32.4376 40.9375 23.6459V20.1042" stroke="white" stroke-width="1.5" stroke-linecap="round" stroke-linejoin="round"/>
<path d="M22.104 13.3958C23.979 12.7083 26.0207 12.7083 27.8957 13.3958" stroke="white" stroke-width="1.5" stroke-linecap="round" stroke-linejoin="round"/>
<path d="M23.3335 17.8125C24.4377 17.5208 25.5835 17.5208 26.6877 17.8125" stroke="white" stroke-width="1.5" stroke-linecap="round" stroke-linejoin="round"/>
<path d="M25 39.5833V45.8333" stroke="white" stroke-width="1.5" stroke-linecap="round" stroke-linejoin="round"/>
</svg>
